<?xml version="1.0" standalone="no"?>
<!DOCTYPE svg PUBLIC "-//W3C//DTD SVG 20010904//EN"
 "http://www.w3.org/TR/2001/REC-SVG-20010904/DTD/svg10.dtd">
<svg version="1.0" xmlns="http://www.w3.org/2000/svg"
 width="640.000000pt" height="384.000000pt" viewBox="0 0 640.000000 384.000000"
 preserveAspectRatio="xMidYMid meet">

<g transform="translate(0.000000,384.000000) scale(0.100000,-0.100000)"
fill="#000000" stroke="none">
<path d="M3970 3741 c-14 -5 -72 -31 -130 -60 -59 -28 -116 -51 -127 -51 -19
0 -23 -8 -29 -57 -6 -49 -3 -62 17 -101 13 -24 34 -52 47 -62 l23 -19 -48 -27
c-91 -51 -118 -71 -188 -140 -92 -90 -131 -149 -162 -242 -22 -67 -26 -98 -29
-232 -1 -85 2 -180 7 -210 35 -207 72 -560 59 -560 -3 0 -11 -15 -18 -33 -13
-36 -90 -115 -137 -139 -99 -51 -312 -77 -604 -72 -135 2 -221 -1 -233 -7 -11
-6 -35 -12 -55 -14 -38 -3 -57 -15 -27 -16 24 -1 -153 -48 -181 -48 l-20 0 20
8 c19 8 18 9 -5 13 l-25 4 28 14 27 13 -62 22 c-88 31 -165 85 -222 155 -28
33 -53 60 -57 60 -13 0 -176 195 -194 234 -10 21 -37 52 -59 68 -41 30 -42 30
-146 25 -58 -3 -128 -12 -156 -20 -43 -11 -55 -11 -70 0 -22 16 -98 17 -127 2
-29 -16 -37 -28 -37 -61 0 -16 -8 -31 -19 -37 -29 -16 -121 -27 -179 -21 -66
7 -85 -3 -46 -23 45 -23 129 -38 245 -44 100 -5 106 -7 101 -26 -4 -17 -1 -18
29 -12 66 15 144 59 147 83 3 22 7 23 45 17 23 -3 78 -24 122 -45 81 -39 80
-39 307 -270 24 -25 69 -68 99 -97 31 -28 62 -65 69 -83 12 -29 11 -32 -16
-53 -41 -31 -121 -116 -150 -158 -41 -60 -65 -161 -71 -300 -4 -100 -2 -137
12 -184 21 -74 60 -152 90 -185 105 -112 115 -125 115 -163 0 -31 -5 -41 -32
-58 -51 -31 -153 -23 -237 19 -73 37 -96 40 -110 14 -5 -10 -22 -24 -38 -32
-15 -8 -53 -31 -84 -52 -32 -20 -75 -45 -98 -54 -23 -9 -41 -20 -41 -24 0 -9
-84 -43 -163 -66 -57 -16 -59 -15 -81 5 -30 28 -38 27 -65 -10 -17 -23 -29
-29 -49 -27 -25 3 -27 6 -24 44 5 63 -11 94 -49 94 -33 0 -129 -22 -194 -45
-22 -8 -59 -19 -82 -25 -24 -6 -43 -15 -43 -20 0 -5 24 -22 53 -39 28 -17 77
-54 107 -83 52 -51 57 -53 120 -58 56 -4 66 -8 75 -28 19 -43 77 -41 172 3 29
14 76 30 105 35 72 14 110 27 203 70 158 73 217 85 320 65 99 -20 224 -20 289
0 116 35 261 150 356 283 33 46 41 47 116 16 34 -14 54 -54 54 -107 0 -53 -31
-151 -64 -202 -33 -50 -66 -133 -66 -165 0 -20 62 -71 105 -87 17 -7 113 -14
220 -16 143 -3 201 -8 235 -20 34 -13 81 -17 193 -17 l148 0 -33 35 c-18 19
-43 45 -54 59 -16 18 -36 26 -80 31 -33 4 -81 13 -109 20 -78 21 -244 53 -313
61 -93 10 -113 37 -66 90 47 53 72 98 104 189 18 50 42 111 54 136 l21 47 105
5 c392 21 491 28 535 37 28 6 122 24 210 40 88 17 168 33 177 36 32 10 82 -18
120 -67 24 -31 63 -62 110 -90 40 -23 89 -52 108 -64 34 -22 161 -67 228 -80
48 -10 61 -44 33 -84 -12 -17 -26 -31 -30 -31 -4 0 -44 -25 -90 -55 -46 -30
-87 -55 -92 -55 -4 0 -25 -12 -46 -26 -30 -20 -47 -25 -83 -22 -25 3 -51 6
-59 9 -9 2 -17 -8 -23 -29 -20 -75 -106 -56 -120 27 -4 23 -16 53 -26 66 -17
22 -21 23 -38 10 -11 -8 -29 -15 -41 -15 -13 0 -23 -4 -23 -10 0 -5 -5 -10
-12 -10 -6 0 -25 -10 -42 -23 -17 -13 -55 -37 -83 -53 -29 -16 -53 -34 -53
-41 0 -6 23 -16 51 -23 27 -7 63 -23 79 -36 15 -13 31 -24 35 -24 3 0 25 -13
48 -28 41 -28 45 -28 195 -30 l154 -2 43 30 c24 17 48 30 54 30 5 0 14 6 18
13 11 18 54 43 238 137 88 45 168 89 178 98 30 27 49 79 51 137 1 51 -1 57
-42 98 -31 32 -61 50 -110 66 -37 13 -98 39 -137 58 -59 29 -74 42 -96 81
l-26 47 131 2 c72 1 212 3 311 5 192 3 235 -3 353 -49 34 -14 62 -29 62 -34 0
-5 6 -9 13 -9 24 0 248 -130 284 -165 20 -19 40 -35 45 -35 4 0 15 -18 24 -41
14 -34 20 -40 40 -35 22 6 54 -15 54 -34 0 -5 2 -15 5 -22 3 -8 -6 -27 -20
-42 -33 -35 -32 -46 8 -83 34 -33 264 -149 274 -139 4 3 -1 30 -10 59 -9 28
-21 82 -26 118 -12 84 -22 104 -83 158 -48 43 -50 45 -43 86 5 38 3 45 -21 64
-15 12 -33 21 -41 21 -16 0 -123 60 -223 125 -36 23 -85 51 -110 62 -25 11
-67 37 -95 57 -136 99 -170 116 -227 116 -30 0 -76 7 -103 17 -42 14 -57 14
-113 3 -52 -10 -78 -10 -138 0 -41 7 -77 16 -79 20 -2 4 7 22 21 41 42 56 54
96 54 179 0 43 4 80 10 82 19 6 23 198 6 323 -25 181 -67 311 -140 435 -8 14
-42 82 -76 153 -33 70 -65 127 -69 127 -4 0 -35 39 -69 88 -33 48 -76 101 -94
119 -39 37 -88 147 -88 197 0 27 8 41 38 67 20 18 36 39 34 46 -2 10 7 12 35
8 21 -3 88 -12 148 -19 123 -16 195 -37 210 -62 37 -62 55 -81 87 -97 75 -37
161 -35 151 3 -3 11 0 27 7 35 18 22 -2 42 -51 50 -50 9 -79 50 -79 112 0 64
19 76 107 71 40 -3 79 -10 87 -17 8 -7 34 -11 58 -9 41 3 43 5 46 36 2 24 10
35 27 42 24 9 55 56 55 83 0 7 -13 34 -29 59 -25 39 -37 48 -68 53 -54 10
-184 44 -208 56 -11 5 -72 22 -135 38 -129 32 -220 67 -220 86 0 22 -38 48
-61 42 -12 -3 -35 1 -50 9 -43 22 -65 18 -79 -16 -13 -31 -24 -37 -35 -21 -3
6 4 18 15 29 21 19 20 19 -87 36 -59 9 -109 19 -112 21 -2 3 -6 28 -9 56 -4
39 0 61 18 96 l22 44 -23 25 c-23 25 -37 28 -79 15z m40 -41 c0 -5 -4 -10 -9
-10 -6 0 -13 5 -16 10 -3 6 1 10 9 10 9 0 16 -4 16 -10z m-200 -64 c0 -3 -4
-8 -10 -11 -5 -3 -10 -1 -10 4 0 6 5 11 10 11 6 0 10 -2 10 -4z m-30 -41 c10
-12 10 -15 -3 -15 -25 0 -47 11 -41 21 8 14 30 11 44 -6z m101 -47 c5 -7 4
-14 -1 -16 -5 -2 -6 -10 -3 -18 8 -22 0 -17 -41 25 l-39 39 38 -8 c21 -5 42
-15 46 -22z m610 -223 c19 -8 27 -14 18 -15 -9 0 -32 7 -50 15 -19 8 -27 14
-18 15 9 0 32 -7 50 -15z m199 -45 c30 -10 74 -21 98 -25 24 -4 41 -9 38 -12
-12 -13 -266 48 -266 64 0 6 70 -8 130 -27z m-176 -16 c20 -8 11 -24 -15 -24
-19 0 -25 11 -12 23 8 8 8 8 27 1z m76 -29 c17 -9 30 -20 30 -25 0 -6 14 -10
31 -10 20 0 29 -4 26 -12 -6 -20 -170 -13 -173 7 -1 6 2 9 7 8 4 -2 5 5 2 14
-4 10 -2 14 4 10 6 -4 16 0 23 8 15 18 14 18 50 0z m-906 -21 c3 -8 2 -12 -4
-9 -6 3 -10 10 -10 16 0 14 7 11 14 -7z m786 1 c0 -31 -94 -46 -145 -23 -30
13 -33 28 -5 28 11 0 20 -4 20 -9 0 -20 37 -20 75 -1 47 24 55 25 55 5z m-680
-33 c0 -15 -2 -15 -10 -2 -13 20 -13 33 0 25 6 -3 10 -14 10 -23z m1159 -24
c-12 -21 -13 -21 -17 -4 -2 10 2 22 9 27 20 12 22 4 8 -23z m-1381 -14 c-3
-14 -5 -12 -10 9 -3 19 -2 25 4 19 6 -6 8 -18 6 -28z m194 -28 c7 -13 7 -16
-1 -12 -6 4 -18 22 -27 39 -14 30 -14 31 1 12 9 -11 21 -28 27 -39z m1235 32
c-3 -8 -6 -5 -6 6 -1 11 2 17 5 13 3 -3 4 -12 1 -19z m-1357 -21 c0 -7 9 -23
20 -37 24 -31 28 -59 5 -40 -8 7 -15 18 -15 25 0 8 -4 15 -9 17 -5 2 -13 16
-17 32 -5 21 -4 27 5 22 6 -4 11 -13 11 -19z m50 -13 c0 -8 -4 -12 -10 -9 -5
3 -10 13 -10 21 0 8 5 12 10 9 6 -3 10 -13 10 -21z m-74 -36 c40 -48 45 -72 5
-28 -23 24 -41 46 -41 47 0 10 19 0 36 -19z m977 -3 c36 -3 44 -12 17 -20 -30
-10 -85 2 -101 22 -12 14 -10 15 21 8 19 -4 47 -9 63 -10z m-965 -45 c13 -17
28 -27 36 -24 16 6 51 -40 42 -55 -8 -12 60 -71 82 -71 12 1 8 9 -17 30 -18
15 -38 37 -45 48 -6 11 -17 29 -24 41 -11 18 -10 21 3 21 8 0 15 -7 15 -15 0
-9 11 -21 25 -27 14 -6 25 -15 25 -20 0 -17 32 -58 41 -52 5 3 0 17 -11 31
-26 34 -26 53 0 25 24 -25 42 -29 34 -7 -5 12 -2 14 12 8 29 -10 73 -61 60
-68 -6 -3 -2 -4 9 -2 35 5 60 -33 61 -94 1 -51 46 -204 81 -272 24 -47 130
-209 170 -260 49 -62 103 -164 103 -194 0 -35 -35 -65 -68 -57 -57 14 -60 18
-55 87 5 54 2 70 -20 112 -26 49 -26 50 -22 15 19 -164 18 -166 -81 -155 -38
4 -88 7 -111 6 -23 -1 -51 2 -61 8 -28 15 -54 101 -55 176 -1 57 2 67 30 99
31 35 31 35 19 88 -7 29 -25 81 -39 115 -15 34 -27 74 -27 88 0 14 -8 53 -17
88 -15 55 -25 69 -90 131 -40 38 -84 88 -98 111 -13 24 -31 45 -40 49 -18 7
-20 26 -2 26 7 0 23 -13 35 -30z m-59 -134 c10 -13 3 -10 -17 9 -28 25 -62 77
-62 93 0 5 51 -60 79 -102z m42 35 c13 -11 19 -20 13 -21 -16 0 -64 47 -64 62
1 9 5 7 13 -4 8 -9 24 -26 38 -37z m69 -37 c0 -11 -30 17 -52 50 -20 28 -19
28 15 -6 20 -20 37 -40 37 -44z m-43 -79 c15 -11 32 -19 36 -17 5 1 6 -2 3 -7
-3 -5 1 -11 9 -15 15 -6 21 -26 7 -26 -12 0 -121 93 -139 120 -16 23 -14 23
19 -5 20 -16 49 -39 65 -50z m103 31 c22 -27 -5 -17 -31 10 -21 24 -22 26 -3
16 11 -6 26 -18 34 -26z m-303 -44 c13 -13 18 -32 8 -32 -8 0 -45 63 -45 75 0
6 6 1 12 -10 7 -11 18 -26 25 -33z m213 26 c0 -6 -6 -5 -15 2 -8 7 -15 14 -15
16 0 2 7 1 15 -2 8 -4 15 -11 15 -16z m-145 -108 c21 -22 37 -40 34 -40 -3 0
-23 18 -44 40 -21 22 -37 40 -34 40 3 0 23 -18 44 -40z m123 0 c34 -21 40 -30
20 -30 -16 0 -77 49 -63 50 6 0 25 -9 43 -20z m-31 -75 c20 -17 23 -24 12 -25
-8 0 -26 11 -39 25 -30 32 -10 33 27 0z m-173 -65 c21 -22 35 -40 32 -40 -8 0
-76 67 -76 75 0 10 6 5 44 -35z m205 19 c21 -7 29 -15 23 -21 -6 -6 -21 -4
-41 6 -50 26 -39 35 18 15z m-160 -273 c13 -14 36 -30 52 -37 16 -6 28 -14 25
-16 -7 -7 -63 25 -90 52 -14 14 -22 25 -17 25 4 0 18 -11 30 -24z m128 -72
c-3 -3 -12 -4 -19 -1 -8 3 -5 6 6 6 11 1 17 -2 13 -5z m-102 -24 c3 -6 -1 -7
-9 -4 -18 7 -21 14 -7 14 6 0 13 -4 16 -10z m-2265 -69 c-8 -5 -35 -12 -60
-15 -43 -7 -44 -6 -20 7 14 8 41 15 60 16 24 0 30 -2 20 -8z m176 -7 c28 -15
28 -15 -26 -9 -65 8 -91 25 -38 25 20 0 49 -7 64 -16z m2124 6 c0 -5 -4 -10
-10 -10 -5 0 -10 5 -10 10 0 6 5 10 10 10 6 0 10 -4 10 -10z m-2031 -35 c47
-16 106 -58 115 -82 6 -14 4 -14 -11 -2 -10 8 -25 22 -33 32 -8 9 -42 28 -75
42 -65 27 -63 34 4 10z m-366 -32 c-7 -2 -19 -2 -25 0 -7 3 -2 5 12 5 14 0 19
-2 13 -5z m542 -105 c38 -39 33 -44 -8 -9 -17 14 -42 51 -35 51 2 0 21 -19 43
-42z m172 -180 c20 -21 45 -38 55 -38 10 0 18 -7 18 -15 0 -21 -14 -19 -36 6
-10 12 -36 32 -56 45 -21 14 -38 30 -38 37 0 7 -16 27 -35 46 -19 18 -35 38
-35 44 0 7 20 -10 45 -38 24 -27 61 -67 82 -87z m643 -88 c0 -5 -2 -10 -4 -10
-3 0 -8 5 -11 10 -3 6 -1 10 4 10 6 0 11 -4 11 -10z m1791 -40 c7 0 -20 -71
-38 -99 -1 -2 -9 2 -18 9 -9 7 -18 10 -22 6 -4 -3 -17 4 -30 16 -13 12 -23 16
-23 10 0 -7 4 -12 9 -12 16 0 23 -40 11 -55 -10 -12 -10 -15 0 -15 6 0 14 8
17 19 3 13 11 17 24 14 19 -5 27 -43 9 -43 -15 0 -12 -66 4 -79 17 -14 168
-22 160 -9 -10 16 16 35 41 30 14 -2 25 -8 25 -13 0 -5 -7 -6 -15 -3 -10 4
-15 0 -15 -11 0 -11 5 -15 15 -11 8 3 15 1 15 -4 0 -6 -5 -10 -11 -10 -5 0 -7
-6 -3 -12 6 -10 4 -10 -7 0 -16 14 -71 16 -117 2 -29 -8 -33 -7 -28 6 5 12 1
14 -15 9 -31 -10 -100 25 -93 47 3 10 -3 21 -15 28 -25 13 -56 69 -44 80 4 5
17 10 28 13 17 4 16 5 -5 6 -20 1 -22 3 -10 11 25 16 -7 12 -41 -6 -30 -15
-74 -11 -64 6 3 5 12 7 19 4 8 -3 16 2 18 12 2 13 15 17 63 19 39 1 64 -3 73
-12 17 -16 36 -7 28 14 -8 20 13 45 31 38 8 -3 19 -5 24 -5z m-1761 -10 c0 -5
-5 -10 -11 -10 -5 0 -7 5 -4 10 3 6 8 10 11 10 2 0 4 -4 4 -10z m563 -37 c-7
-2 -19 -2 -25 0 -7 3 -2 5 12 5 14 0 19 -2 13 -5z m1227 -18 c0 -8 -5 -15 -11
-15 -6 0 -9 -9 -6 -20 3 -11 1 -18 -3 -15 -5 3 -11 -1 -13 -7 -10 -25 -7 20 3
46 10 28 30 35 30 11z m-1503 -11 c-3 -3 -12 -4 -19 -1 -8 3 -5 6 6 6 11 1 17
-2 13 -5z m88 -4 c3 -5 1 -10 -4 -10 -6 0 -11 5 -11 10 0 6 2 10 4 10 3 0 8
-4 11 -10z m1095 -9 c0 -6 -5 -13 -10 -16 -6 -4 -7 -12 -4 -18 4 -7 4 -9 -1
-5 -4 4 -14 3 -22 -3 -18 -15 -17 1 3 29 16 23 34 29 34 13z m115 -1 c-3 -5
-12 -10 -18 -10 -7 0 -6 4 3 10 19 12 23 12 15 0z m-975 -30 c0 -5 -2 -10 -4
-10 -3 0 -8 5 -11 10 -3 6 -1 10 4 10 6 0 11 -4 11 -10z m1260 -4 c0 -3 -4 -8
-10 -11 -5 -3 -10 -1 -10 4 0 6 5 11 10 11 6 0 10 -2 10 -4z m58 -18 c7 -7 12
-16 12 -20 0 -11 -52 -10 -70 2 -12 7 -8 10 15 10 23 0 27 3 15 10 -13 9 -13
10 1 10 8 0 20 -5 27 -12z m-1641 -4 c-3 -3 -12 -4 -19 -1 -8 3 -5 6 6 6 11 1
17 -2 13 -5z m830 -26 c-3 -7 -5 -2 -5 12 0 14 2 19 5 13 2 -7 2 -19 0 -25z
m384 15 c1 -10 2 -25 3 -34 1 -8 9 -24 20 -34 13 -13 15 -20 6 -23 -21 -7 -53
34 -52 68 1 29 0 30 -13 14 -7 -10 -11 -22 -9 -26 2 -4 0 -9 -6 -13 -15 -10
-12 18 6 43 18 26 43 29 45 5z m246 -38 c-13 -28 -32 -33 -41 -10 -3 10 1 15
14 15 10 0 22 5 25 10 12 19 13 10 2 -15z m-332 -23 c1 -17 -1 -18 -17 -9 -24
15 -25 52 -1 39 9 -6 17 -19 18 -30z m220 -3 c1 -22 -2 -24 -30 -20 -18 3 -23
6 -12 9 16 3 22 15 18 35 -1 5 4 7 11 5 7 -3 13 -16 13 -29z m-529 -5 c-11 -8
-27 -14 -35 -13 -9 0 -4 5 12 11 15 5 27 15 27 21 0 5 3 7 7 3 5 -4 -1 -14
-11 -22z m722 11 c3 -3 -3 -5 -14 -6 -10 0 -29 -2 -41 -3 -14 -2 -23 3 -23 11
0 9 10 12 36 8 20 -2 39 -7 42 -10z m-1811 -17 c-3 -8 -6 -5 -6 6 -1 11 2 17
5 13 3 -3 4 -12 1 -19z m1553 2 c0 -5 -4 -10 -10 -10 -5 0 -10 5 -10 10 0 6 5
10 10 10 6 0 10 -4 10 -10z m411 -11 c8 -16 8 -24 -2 -33 -9 -8 -10 -8 -4 2 4
8 0 21 -11 33 -9 10 -12 19 -6 19 6 0 16 -9 23 -21z m-2071 -19 c-8 -5 -17 -7
-19 -4 -3 3 1 9 9 14 8 5 17 7 19 4 3 -3 -1 -9 -9 -14z m2043 -15 c-7 -21 -13
-19 -13 6 0 11 4 18 10 14 5 -3 7 -12 3 -20z m-2123 -25 c0 -23 7 -33 30 -45
26 -14 28 -18 20 -41 -6 -14 -8 -29 -5 -34 3 -4 -3 -14 -12 -21 -13 -11 -15
-11 -9 -1 4 7 2 19 -4 27 -10 12 -10 18 0 30 14 17 0 42 -18 31 -13 -7 -23
-46 -12 -46 4 0 3 -11 -3 -25 -15 -32 -27 -32 -27 -1 0 18 -8 27 -27 34 l-28
10 26 10 c25 10 59 47 59 64 0 5 -7 8 -15 8 -8 0 -15 7 -15 15 0 8 9 15 20 15
16 0 20 -7 20 -30z m1266 4 c10 -8 13 -13 7 -9 -8 4 -13 0 -13 -9 0 -26 -17
-18 -22 9 -6 29 1 31 28 9z m-53 -11 c3 -5 7 -37 11 -73 l5 -65 -12 55 -12 55
-48 0 c-54 0 -58 17 -6 26 51 10 57 10 62 2z m749 -67 c7 5 9 2 5 -8 -3 -9 0
-21 6 -27 14 -14 5 -22 -12 -11 -9 5 -15 29 -16 62 -1 29 0 36 2 15 3 -24 8
-35 15 -31z m-52 39 c0 -8 -7 -15 -16 -15 -14 0 -14 3 -4 15 7 8 14 15 16 15
2 0 4 -7 4 -15z m-1710 1 c0 -3 -4 -8 -10 -11 -5 -3 -10 -1 -10 4 0 6 5 11 10
11 6 0 10 -2 10 -4z m843 -3 c-13 -2 -35 -2 -50 0 -16 2 -5 4 22 4 28 0 40 -2
28 -4z m-116 -9 c-3 -3 -12 -4 -19 -1 -8 3 -5 6 6 6 11 1 17 -2 13 -5z m213
-21 c0 -10 -4 -14 -8 -8 -4 6 -11 13 -16 18 -5 4 -2 7 7 7 10 0 17 -8 17 -17z
m960 9 c0 -5 -7 -9 -15 -9 -8 0 -12 4 -9 9 3 4 9 8 15 8 5 0 9 -4 9 -8z
m-2344 -29 c-10 -10 -19 5 -10 18 6 11 8 11 12 0 2 -7 1 -15 -2 -18z m1944 17
c13 -9 13 -10 0 -10 -8 0 -22 5 -30 10 -13 9 -13 10 0 10 8 0 22 -5 30 -10z
m-513 -37 c-3 -10 -5 -4 -5 12 0 17 2 24 5 18 2 -7 2 -21 0 -30z m-1599 -22
c-16 -5 -29 14 -22 34 6 16 8 15 20 -6 8 -15 9 -25 2 -28z m-78 29 c0 -5 -2
-10 -4 -10 -3 0 -8 5 -11 10 -3 6 -1 10 4 10 6 0 11 -4 11 -10z m1552 -22 c-8
-8 -9 -4 -5 13 4 13 8 18 11 10 2 -7 -1 -18 -6 -23z m-1392 7 c-14 -17 -40
-20 -40 -5 0 5 6 7 14 4 8 -3 17 -1 21 5 3 6 9 11 12 11 3 0 0 -7 -7 -15z
m746 -146 l19 -22 -27 18 c-27 17 -28 21 -27 94 l2 76 7 -72 c4 -50 12 -79 26
-94z m14 110 c0 -24 -4 -38 -10 -34 -17 10 -11 75 7 75 2 0 3 -18 3 -41z m400
21 c0 -5 -12 -10 -27 -9 l-28 1 25 8 c14 4 26 8 28 9 1 1 2 -3 2 -9z m155 1
c3 -5 1 -12 -5 -16 -5 -3 -10 1 -10 9 0 18 6 21 15 7z m-508 -23 c-3 -8 -6 -5
-6 6 -1 11 2 17 5 13 3 -3 4 -12 1 -19z m-167 2 c0 -5 -8 -10 -17 -10 -15 0
-16 2 -3 10 19 12 20 12 20 0z m240 -28 c0 -15 -2 -15 -10 -2 -13 20 -13 33 0
25 6 -3 10 -14 10 -23z m267 22 c-3 -3 -12 -4 -19 -1 -8 3 -5 6 6 6 11 1 17
-2 13 -5z m-317 -18 c0 -3 -4 -8 -10 -11 -5 -3 -10 -1 -10 4 0 6 5 11 10 11 6
0 10 -2 10 -4z m280 0 c0 -3 -4 -8 -10 -11 -5 -3 -10 -1 -10 4 0 6 5 11 10 11
6 0 10 -2 10 -4z m960 -5 c0 -6 -4 -13 -10 -16 -5 -3 -10 1 -10 9 0 9 5 16 10
16 6 0 10 -4 10 -9z m-920 -11 c0 -5 -8 -10 -17 -10 -15 0 -16 2 -3 10 19 12
20 12 20 0z m150 -4 c0 -3 -4 -8 -10 -11 -5 -3 -10 -1 -10 4 0 6 5 11 10 11 6
0 10 -2 10 -4z m1055 -34 c-2 -2 -16 -1 -30 2 -22 6 -24 10 -15 21 10 12 14
11 30 -3 11 -9 17 -18 15 -20z m-1335 -13 c0 -8 -59 2 -65 11 -2 4 7 6 20 4
14 -1 25 3 25 9 0 12 20 -12 20 -24z m24 15 c5 -14 4 -15 -9 -4 -17 14 -19 20
-6 20 5 0 12 -7 15 -16z m33 -6 c-3 -8 -6 -5 -6 6 -1 11 2 17 5 13 3 -3 4 -12
1 -19z m-1342 -35 c-3 -26 -8 -49 -11 -52 -6 -6 -5 50 2 77 11 38 16 24 9 -25z
m368 -45 c9 -6 9 -8 0 -8 -17 0 -33 33 -32 67 1 24 2 22 10 -12 5 -21 15 -43
22 -47z m2123 45 c-4 -4 -11 -1 -16 7 -16 25 -11 35 7 17 9 -9 13 -20 9 -24z
m-2114 -8 c3 -13 1 -22 -3 -19 -9 5 -13 44 -5 44 2 0 6 -11 8 -25z m1990 -10
c3 -13 1 -22 -3 -19 -9 5 -13 44 -5 44 2 0 6 -11 8 -25z m-1937 5 c-3 -5 -14
-10 -23 -10 -15 0 -15 2 -2 10 20 13 33 13 25 0z m715 -16 c0 -9 -5 -14 -12
-12 -18 6 -21 28 -4 28 9 0 16 -7 16 -16z m-690 -4 c0 -5 -5 -10 -11 -10 -5 0
-7 5 -4 10 3 6 8 10 11 10 2 0 4 -4 4 -10z m2085 -40 c-16 -17 -16 -20 -2 -20
9 0 18 -4 21 -9 3 -4 -6 -6 -19 -3 -36 7 -33 52 3 52 12 0 12 -4 -3 -20z
m-1560 -20 c3 -5 2 -10 -4 -10 -5 0 -13 5 -16 10 -3 6 -2 10 4 10 5 0 13 -4
16 -10z m-978 -32 c-3 -7 -5 -2 -5 12 0 14 2 19 5 13 2 -7 2 -19 0 -25z m10
-40 c-3 -8 -6 -5 -6 6 -1 11 2 17 5 13 3 -3 4 -12 1 -19z m3119 7 c-11 -8 -27
-15 -35 -15 -13 1 -12 4 3 15 11 8 27 15 35 15 13 -1 12 -4 -3 -15z m135 -5
c39 0 97 -30 144 -74 21 -20 41 -33 45 -31 5 3 10 2 12 -3 1 -4 36 -25 77 -46
74 -39 131 -81 131 -98 0 -9 -41 9 -50 22 -3 4 -47 29 -99 55 -51 27 -114 65
-140 85 -48 37 -123 73 -179 85 -18 4 -30 11 -27 15 3 5 17 5 31 0 14 -6 39
-10 55 -10z m-271 -30 c0 -5 -4 -10 -10 -10 -5 0 -10 5 -10 10 0 6 5 10 10 10
6 0 10 -4 10 -10z m-143 -6 c-3 -3 -12 -4 -19 -1 -8 3 -5 6 6 6 11 1 17 -2 13
-5z m-2797 -56 c0 -20 -18 -5 -23 19 -5 26 -4 26 9 8 8 -10 14 -22 14 -27z
m40 17 c7 -9 8 -15 2 -15 -5 0 -12 7 -16 15 -3 8 -4 15 -2 15 2 0 9 -7 16 -15z
m0 -35 c0 -5 -7 -10 -15 -10 -8 0 -15 5 -15 10 0 6 7 10 15 10 8 0 15 -4 15
-10z m2374 -125 c3 -8 1 -15 -3 -15 -5 0 -11 7 -15 15 -3 8 -1 15 3 15 5 0 11
-7 15 -15z m51 -25 c3 -5 2 -10 -4 -10 -5 0 -13 5 -16 10 -3 6 -2 10 4 10 5 0
13 -4 16 -10z m105 -65 c-14 -17 -40 -20 -40 -5 0 5 6 7 14 4 8 -3 17 -1 21 5
3 6 9 11 12 11 3 0 0 -7 -7 -15z m1225 -25 c3 -5 2 -10 -4 -10 -5 0 -13 5 -16
10 -3 6 -2 10 4 10 5 0 13 -4 16 -10z m-3548 -42 c-3 -8 -6 -5 -6 6 -1 11 2
17 5 13 3 -3 4 -12 1 -19z m3630 7 c2 -6 -6 -16 -16 -22 -16 -10 -22 -8 -36
13 l-16 25 32 -3 c18 -2 34 -8 36 -13z m-1007 -51 c8 -9 -3 -4 -25 10 -51 35
-57 42 -19 23 17 -9 37 -23 44 -33z m-3041 -50 c27 -35 27 -49 -1 -30 -12 9
-30 16 -40 16 -20 0 -21 1 -12 24 9 24 30 19 53 -10z m-793 -69 c3 -13 4 -30
1 -37 -3 -8 -6 -5 -6 6 -1 11 -8 28 -18 38 -15 17 -15 18 0 18 9 0 19 -11 23
-25z m4949 -55 c-3 -5 -13 -10 -21 -10 -8 0 -12 5 -9 10 3 6 13 10 21 10 8 0
12 -4 9 -10z m-4745 -136 c0 -10 -39 -3 -44 9 -5 10 -7 10 -12 0 -11 -24 -24
-13 -18 15 11 44 15 45 45 12 16 -17 29 -33 29 -36z m2794 16 c5 -19 16 -39
23 -43 8 -5 13 -25 12 -50 -1 -23 -3 -34 -6 -24 -2 9 -9 17 -14 17 -5 0 -9 13
-9 29 0 29 -19 45 -43 35 -8 -3 -19 2 -26 10 -7 8 -19 12 -27 9 -8 -3 -14 0
-14 6 0 7 8 15 18 18 9 4 23 13 31 20 22 22 45 11 55 -27z m1976 -36 c0 -10
-20 -3 -41 16 l-24 20 33 -16 c17 -8 32 -17 32 -20z m-3245 16 c3 -5 1 -10 -5
-10 -6 0 -8 -5 -4 -12 4 -7 3 -8 -4 -4 -14 9 -16 36 -3 36 6 0 13 -4 16 -10z
m1566 -120 c-27 -23 -61 -26 -61 -6 0 15 19 23 60 25 l25 0 -24 -19z"/>
<path d="M3891 2780 c-2 -51 68 -249 95 -271 8 -6 14 -20 14 -30 0 -10 29 -50
65 -88 36 -37 65 -73 65 -79 0 -6 4 -13 10 -17 26 -16 -16 58 -55 97 -68 67
-133 195 -150 292 -3 21 -10 46 -15 55 -4 9 -13 27 -18 41 l-11 25 0 -25z"/>
</g>
</svg>
